# xmcd CD database file
#
# Track frame offsets:
#	150
#	17990
#	32509
#	53218
#	70895
#	90746
#	110640
#	132151
#	153289
#	172173
#
# Disc length: 2490 seconds
#
# Revision: 5
# Processed by: cddbd v1.5PL3 Copyright (c) Steve Scherf et al.
# Submitted via: CDex 1.40Release
#
DISCID=8409b80a
DTITLE=ウルフルズ - バンザイ
DYEAR=1996
DGENRE=Japanese Pop
TTITLE0=ガッツだぜ!!
TTITLE1=トコトンで行こう
TTITLE2=バンザイ~好きでよかった
TTITLE3=暴動チャイル
TTITLE4=SUN SUN SUN’95
TTITLE5=てんてこまいマイ・マインド
TTITLE6=大阪ストラット(アルバム・ヴァージョン)
TTITLE7=ダメなものはダメ
TTITLE8=おし愛へし愛どつき愛
TTITLE9=泣きたくないのに
EXTD=YEAR: 1996
EXTT0=
EXTT1=
EXTT2=
EXTT3=
EXTT4=
EXTT5=
EXTT6=
EXTT7=
EXTT8=
EXTT9=
PLAYORDER=
